<svg xmlns="http://www.w3.org/2000/svg" width="30" height="30" viewBox="0 0 30 30">
  <path id="Clembs" d="M11.977,29.7a14.917,14.917,0,0,1-5.364-2.257,15.045,15.045,0,0,1-5.435-6.6A14.932,14.932,0,0,1,.3,18.023,15.111,15.111,0,0,1,0,15H7.5a7.5,7.5,0,0,0,12.8,5.3l2.2,2.2,3.107,3.107a15.028,15.028,0,0,1-4.768,3.215,14.932,14.932,0,0,1-2.816.874,15.148,15.148,0,0,1-6.046,0ZM22.5,15,30,7.5v15Zm-15,0L15,7.5,22.5,0H30L22.5,7.5,15,15ZM3.75,6.643a3.75,3.75,0,1,1,3.75,3.75A3.75,3.75,0,0,1,3.75,6.643Z"/>
</svg>
