<svg xmlns="http://www.w3.org/2000/svg" width="29.4" height="29.4" viewBox="0 0 29.4 29.4">
  <g id="Group_589" data-name="Group 589" transform="translate(-0.001 0)">
    <path id="Subtraction_310" data-name="Subtraction 310" d="M1131.4-7689.4a14.6,14.6,0,0,1-10.394-4.305,14.6,14.6,0,0,1-4.305-10.394,14.607,14.607,0,0,1,4.305-10.4,14.6,14.6,0,0,1,10.394-4.306,14.605,14.605,0,0,1,10.4,4.306,14.6,14.6,0,0,1,4.306,10.4,14.6,14.6,0,0,1-4.306,10.394A14.605,14.605,0,0,1,1131.4-7689.4Zm2.752-11.949h0a3.884,3.884,0,0,1-2.323,1.1l1.023,9.134a13.106,13.106,0,0,0,7.787-3.741,13.1,13.1,0,0,0,3.743-7.8l-9.134-1.015a3.885,3.885,0,0,1-1.094,2.322Zm-2.752-5.2a2.454,2.454,0,0,0-2.451,2.451,2.453,2.453,0,0,0,2.451,2.45,2.453,2.453,0,0,0,2.45-2.45A2.453,2.453,0,0,0,1131.4-7706.55Zm-9.241-6.789a13.1,13.1,0,0,0-3.742,7.8l9.134,1.015a3.9,3.9,0,0,1,1.1-2.325,3.888,3.888,0,0,1,2.346-1.1l-.963-9.144a13.094,13.094,0,0,0-7.873,3.756Z" transform="translate(-1116.7 7718.8)"/>
    <path id="Path_1630" data-name="Path 1630" d="M16.356,18.931l1.022,9.133a13.028,13.028,0,0,0,7.788-3.742l-6.488-6.488A3.878,3.878,0,0,1,16.356,18.931Zm-.835-7.7-.963-9.144A13.026,13.026,0,0,0,6.686,5.844l6.488,6.488a3.876,3.876,0,0,1,2.347-1.1Z" transform="translate(-1.226 -0.383)" opacity="0.56"/>
  </g>
</svg>
