<svg xmlns="http://www.w3.org/2000/svg" width="28.469" height="26.442" viewBox="0 0 28.469 26.442">
  <path id="Path_1631" data-name="Path 1631" d="M9.922,26.272a16.675,16.675,0,0,1-2.588-.491,9.686,9.686,0,0,1-1.984-.788,6.241,6.241,0,0,1-1.439-1.059,7.011,7.011,0,0,1-1.688-2.59q-.058-.156-.11-.316c-.108.072-.215.149-.317.231A5.773,5.773,0,0,0,.422,22.7a.224.224,0,0,1-.2.119A.231.231,0,0,1,.118,22.8a.225.225,0,0,1-.091-.3A6.081,6.081,0,0,1,1.514,20.91a4.758,4.758,0,0,1,.466-.331,15.417,15.417,0,0,1-.32-1.533,5.4,5.4,0,0,0-.753.2,2.543,2.543,0,0,0-.41.174l-.231-.384a4.265,4.265,0,0,1,1.324-.43q-.02-.133-.04-.267a9.2,9.2,0,0,1-.077-1.7,14.187,14.187,0,0,1,.154-1.565,14.625,14.625,0,0,1,.327-1.587A33.3,33.3,0,0,1,2.41,9.986a12.054,12.054,0,0,1,.683-2.429c.322-.742.688-1.133,1.088-1.164.039,0,.077,0,.116,0a1.817,1.817,0,0,1,1.135.444,4.18,4.18,0,0,1,.856.976,7.7,7.7,0,0,1,.726,1.418h0a13.81,13.81,0,0,1,1.922-.944,16.849,16.849,0,0,1,1.809-.623,2.406,2.406,0,0,1,1.805-1.531,9.139,9.139,0,0,1,.081-1.123,6.117,6.117,0,0,1,.293-1.241,3.078,3.078,0,0,1,.668-1.127A3.6,3.6,0,0,1,14.405,2a2.224,2.224,0,0,1,.68-.251,1.6,1.6,0,0,1,.443-.02A1.914,1.914,0,0,1,17.147.036h0l.029-.005h0l.09-.013h0l.028,0h0l.024,0h.007l.025,0h0l.059,0h.126a1.941,1.941,0,0,1,2.021,1.851,1.742,1.742,0,0,1-.385,1.087l0,0-.008.01-.008.01-.006.007-.01.012,0,.006L19.125,3h0a1.945,1.945,0,0,1-.262.249h0l-.018.014,0,0h0a2.124,2.124,0,0,1-1.3.432,1.992,1.992,0,0,1-1.966-1.425l-.01.026h0a.894.894,0,0,0-.428.005,2.348,2.348,0,0,0-1.15.72,3.657,3.657,0,0,0-.806,2.051,8.533,8.533,0,0,0-.075.958l.121-.009c1.629-.09,2.1.662,2.227,1.036h.105a18.117,18.117,0,0,1,2.845.2,7.1,7.1,0,0,1,.949.2h0c.066-.067.661-.667,1.4-1.267a9.862,9.862,0,0,1,1.225-.871,2.408,2.408,0,0,1,1.115-.4.747.747,0,0,1,.245.039c.261.093.442.419.536.972a8.4,8.4,0,0,1,.062,1.743,23.119,23.119,0,0,1-.261,2.412,13.807,13.807,0,0,1,1.029,2.26,16.212,16.212,0,0,1,.679,2.464q.1.532.163,1.061l.14-.015a4.965,4.965,0,0,1,1.925.112l-.147.424h0a2.383,2.383,0,0,0-.437-.086,6.077,6.077,0,0,0-1.3-.005l-.138.015q.025.3.037.594l.045.012a5.148,5.148,0,0,1,1.012.38,6.05,6.05,0,0,1,1.783,1.237l-.342.29a3.036,3.036,0,0,0-.372-.333,7.737,7.737,0,0,0-1.274-.795,4.59,4.59,0,0,0-.843-.323q0,.234-.006.465a9.677,9.677,0,0,1-.479,2.769,7.869,7.869,0,0,1-.922,1.885,6.572,6.572,0,0,1-.9,1.076,3.549,3.549,0,0,1-.4.341,12.836,12.836,0,0,1-2.361,1.2,18.012,18.012,0,0,1-2.762.851,18.857,18.857,0,0,1-3.647.447c-.337.008-.672.013-1,.013A28.672,28.672,0,0,1,9.922,26.272ZM13.4,10.517A12.2,12.2,0,0,0,9.442,11.81a7.005,7.005,0,0,0-1.116.77,5.037,5.037,0,0,0-.67.686,7.136,7.136,0,0,0-.885,3.567c0,.676.019,1.184.061,1.648a8.471,8.471,0,0,0,.281,1.574,6.215,6.215,0,0,0,.648,1.5A6.893,6.893,0,0,0,8.923,23c1.62,1.554,3.442,1.683,5.321,1.683.2,0,.41,0,.607,0h.058l.561,0a11.211,11.211,0,0,0,4.29-1.166,7.2,7.2,0,0,0,2.905-2.694,5.753,5.753,0,0,0,.443-2.22,13.982,13.982,0,0,0-.22-2.769A8.313,8.313,0,0,0,21.847,13a5.532,5.532,0,0,0-.8-1.021,5.164,5.164,0,0,0-1.166-.871,6.355,6.355,0,0,0-1.625-.607,9.755,9.755,0,0,0-2.177-.227A16.487,16.487,0,0,0,13.4,10.517ZM23.727,16.2Zm-2.1-5.062a7.569,7.569,0,0,1,2.093,5,8.272,8.272,0,0,0-.532-2.575,7,7,0,0,0-1.562-2.426c-.062-.062-.125-.123-.188-.182C21.506,11.016,21.569,11.077,21.631,11.137ZM14.842,9.186l.308-.04C15.052,9.158,14.948,9.171,14.842,9.186Zm.46-.058a9.693,9.693,0,0,1,1.048-.058h0A9.687,9.687,0,0,0,15.3,9.128Zm1.207-.057h0Zm-3.9,7.733,5.425-.667s.346,2.976-2.411,3.316a3.5,3.5,0,0,1-.422.026C12.836,19.479,12.605,16.8,12.605,16.8ZM.5,19.416h0Zm27.631-.567h0ZM9.016,16.777a1.066,1.066,0,1,1,1.066,1.066A1.065,1.065,0,0,1,9.016,16.777Zm9.875-1.346A1.067,1.067,0,1,1,19.958,16.5,1.067,1.067,0,0,1,18.891,15.431ZM15.574,2.306h0Zm0,0h0Z" transform="translate(0)"/>
</svg>
